<?xml version="1.0" standalone="no"?>
<!DOCTYPE svg PUBLIC "-//W3C//DTD SVG 20010904//EN"
 "http://www.w3.org/TR/2001/REC-SVG-20010904/DTD/svg10.dtd">
<svg version="1.0" xmlns="http://www.w3.org/2000/svg"
 width="630.000000pt" height="630.000000pt" viewBox="0 0 630.000000 630.000000"
 preserveAspectRatio="xMidYMid meet">

<g transform="translate(0.000000,630.000000) scale(0.100000,-0.100000)"
fill="#000000" stroke="none">
<path d="M1621 4674 c-85 -22 -144 -59 -211 -132 -58 -62 -84 -105 -249 -428
-101 -197 -235 -456 -296 -574 -259 -496 -301 -583 -323 -672 -86 -343 108
-672 458 -779 111 -34 274 -32 386 4 169 56 331 198 389 345 10 23 22 42 29
42 6 0 36 -9 66 -21 30 -12 87 -26 125 -33 l70 -12 -3 -99 c-2 -61 3 -130 12
-176 67 -343 398 -569 751 -513 103 17 186 49 267 104 l60 42 42 -30 c52 -37
135 -79 206 -104 81 -29 234 -32 328 -8 243 64 440 258 493 488 10 43 15 248
7 281 -2 10 15 18 62 26 56 11 130 34 191 60 14 5 25 -10 54 -71 28 -57 56
-96 114 -154 86 -86 150 -126 266 -166 70 -24 95 -27 205 -27 111 0 134 3 210
29 218 73 376 249 431 480 28 116 22 216 -17 334 -18 52 -180 378 -413 828
-413 797 -430 825 -538 889 -110 64 -270 78 -388 33 -82 -32 -182 -131 -228
-226 -18 -38 -66 -183 -107 -321 -41 -139 -78 -253 -83 -253 -4 0 -4 12 0 28
5 15 8 65 8 112 -1 106 -24 163 -98 238 -130 134 -336 187 -722 187 -315 0
-466 -25 -618 -102 -161 -81 -233 -197 -241 -386 -2 -37 -5 -69 -7 -72 -5 -4
-46 132 -114 375 -70 249 -186 390 -355 435 -60 16 -153 15 -219 -1z m186
-243 c53 -25 94 -81 126 -174 14 -39 76 -246 138 -459 62 -214 116 -388 121
-388 4 0 89 80 188 178 l180 178 0 112 c0 76 5 124 14 147 26 61 147 121 296
145 110 18 366 24 495 11 192 -19 305 -54 361 -112 33 -34 35 -63 14 -180 -11
-61 -11 -83 -1 -106 16 -40 359 -380 370 -367 4 5 68 207 140 449 72 242 143
459 157 482 49 84 124 117 212 94 70 -19 102 -58 194 -233 355 -678 689 -1332
703 -1376 28 -84 18 -212 -23 -294 -81 -166 -257 -258 -434 -229 -155 26 -277
121 -324 253 -8 24 -33 126 -55 227 -22 101 -43 191 -48 198 -5 10 -14 -4 -30
-46 -99 -271 -505 -382 -693 -189 -52 54 -55 53 -34 -13 53 -163 107 -353 115
-406 29 -187 -64 -354 -247 -441 -70 -34 -85 -37 -162 -37 -72 0 -94 4 -144
27 -129 61 -211 146 -249 261 -19 56 -21 85 -22 302 0 207 -2 240 -15 240 -13
0 -15 -22 -12 -149 4 -182 -12 -348 -39 -422 -109 -291 -514 -344 -713 -94
-73 91 -98 213 -72 340 9 41 38 146 66 233 27 87 50 167 50 178 0 15 -11 10
-59 -29 -82 -65 -145 -87 -251 -86 -140 2 -262 54 -350 150 -41 45 -90 134
-90 166 0 9 -4 19 -8 22 -5 3 -28 -86 -51 -197 -27 -128 -53 -225 -71 -265
-53 -114 -169 -201 -302 -224 -171 -30 -373 74 -446 230 -24 51 -27 68 -27
172 l0 115 48 100 c27 55 144 285 261 510 117 226 266 514 331 640 162 315
175 333 252 360 52 19 91 18 140 -4z"/>
<path d="M2717 3803 c-14 -14 -6 -48 20 -85 l26 -39 -41 -42 c-46 -47 -52 -73
-24 -108 29 -35 79 -31 112 9 l27 32 26 -30 c49 -55 127 -32 127 37 0 14 -17
40 -41 64 l-41 41 27 38 c28 41 31 83 4 88 -8 1 -35 -13 -60 -31 l-45 -35 -39
34 c-39 32 -64 41 -78 27z"/>
<path d="M3337 3803 c-14 -13 -6 -50 19 -87 l26 -38 -41 -42 c-48 -49 -52 -76
-15 -112 30 -31 67 -27 101 12 l22 25 42 -31 c51 -36 63 -37 94 -5 37 36 32
68 -17 114 l-41 40 27 40 c30 43 32 84 3 89 -9 2 -36 -12 -58 -32 l-42 -35
-40 34 c-39 33 -66 43 -80 28z"/>
<path d="M2610 3149 c0 -28 81 -88 160 -118 144 -56 199 -65 385 -66 148 0
180 3 249 23 124 36 294 132 285 161 -2 6 -25 -4 -54 -25 -129 -92 -255 -132
-440 -141 -207 -9 -387 36 -522 133 -35 25 -63 40 -63 33z"/>
</g>
</svg>
